<svg xmlns="http://www.w3.org/2000/svg" enable-background="new 0 0 50 50" viewBox="0 0 50 50" id="stopwatch"><path fill="#FFF" d="M22.36215,11.98261c7.7475,4.473,14.0321,15.3513,14.0068,24.2606
				c-0.0252,8.9025-6.3509,12.5075-14.0983,8.0345c-7.7536-4.4766-14.0382-15.362-14.0129-24.2645
				C8.28295,11.10381,14.60855,7.50611,22.36215,11.98261z M11.90385,15.43581l0.3427-0.4744l-1.2634-1.5914l-0.3488,0.4645
				L11.90385,15.43581 M33.64995,42.7779l0.3427-0.4744l-1.2695-1.5948l-0.3427,0.4675L33.64995,42.7779 M15.76645,37.7555
				l0.7588-1.0258l-0.5832-0.7289l-0.7527,1.0293L15.76645,37.7555 M28.68495,20.13681l0.7588-1.0185l-0.5831-0.7361l-0.7528,1.0293
				L28.68495,20.13681 M16.58095,12.76361l0.6035-0.0088l-0.6712-1.9008l-0.6035,0.0088L16.58095,12.76361 M10.55565,28.69501
				l1.3168-0.0173l-0.3084-0.8716l-1.3168,0.0241L10.55565,28.69501 M34.07135,27.44261l-1.3106,0.0208l0.3084,0.8717l1.3107-0.0209
				L34.07135,27.44261 M28.11985,45.28711l0.5975-0.0123l-0.6713-1.8936l-0.6035,0.0088L28.11985,45.28711 M8.92845,19.9523
				l-0.0022,0.7763l1.4789,0.8539l0.0022-0.7763L8.92845,19.9523 M34.21975,35.33181l1.4789,0.8539l0.0022-0.7763l-1.4789-0.8539
				L34.21975,35.33181 M22.60765,43.64571l0.0049-1.6994l-0.6756-0.39l-0.0048,1.6994L22.60765,43.64571 M22.01935,12.49191
				l-0.0048,1.6994l0.6755,0.39l0.0049-1.6993L22.01935,12.49191"></path><path fill="#D9AE6D" d="M22.36925,9.47891c-8.9647-5.1758-16.2551-1.0212-16.2843,9.2798
				c-0.0292,10.3014,7.2139,22.8397,16.1786,28.0155c8.9586,5.1722,16.2489,1.0248,16.2781-9.2766
				C38.57085,27.1967,31.32785,14.65121,22.36925,9.47891z M22.27056,44.27771c-7.7535-4.4765-14.0381-15.362-14.0129-24.2645
				c0.0253-8.9093,6.3509-12.5071,14.1045-8.0306c7.7475,4.473,14.0321,15.3513,14.0068,24.2606
				C36.34375,45.14571,30.01805,48.75071,22.27056,44.27771"></path><path fill="#FECD82" d="M43.91505,34.37601c-0.00949,5.1189-1.8206,8.7126-4.728,10.4091l-5.3762,3.1171
				c2.9074-1.6873,4.7185-5.2902,4.728-10.4092c0.0286-10.2946-7.2064-22.8392-16.1667-28.0154
				c-4.5182-2.6023-8.5981-2.8406-11.553-1.1343l5.3761-3.117c2.955-1.7156,7.0348-1.4773,11.5531,1.125
				C36.69915,11.52701,43.94365,24.07161,43.91505,34.37601z"></path><polygon fill="#485F69" points="11.564 27.806 11.872 28.678 10.556 28.695 10.247 27.83"></polygon><polygon fill="#485F69" points="10.983 13.37 12.247 14.961 11.904 15.436 10.634 13.835"></polygon><polygon fill="#485F69" points="22.613 41.946 22.608 43.646 21.932 43.256 21.937 41.556"></polygon><polygon fill="#485F69" points="15.942 36.001 16.525 36.73 15.766 37.755 15.189 37.03"></polygon><polygon fill="#485F69" points="10.407 20.806 10.405 21.583 8.926 20.729 8.928 19.952"></polygon><polygon fill="#485F69" points="28.046 43.381 28.717 45.275 28.12 45.287 27.443 43.39"></polygon><polygon fill="#485F69" points="32.723 40.709 33.993 42.303 33.65 42.778 32.38 41.176"></polygon><polygon fill="#485F69" points="16.513 10.854 17.184 12.755 16.581 12.764 15.91 10.863"></polygon><polygon fill="#485F69" points="35.701 35.409 35.699 36.186 34.22 35.332 34.222 34.556"></polygon><polygon fill="#485F69" points="22.695 12.882 22.69 14.581 22.015 14.191 22.019 12.492"></polygon><polygon fill="#485F69" points="34.071 27.443 34.38 28.314 33.069 28.335 32.761 27.463"></polygon><polygon fill="#485F69" points="28.861 18.382 29.444 19.118 28.685 20.137 28.108 19.412"></polygon><g><g><path fill="#485F69" d="M24.56785,6.53151l-0.0072,0.4621c-0.0008,0.2753-0.1818,0.5501-0.5434,0.7603
							c-0.7278,0.4229-1.9107,0.4229-2.6433,0c-0.3686-0.2129-0.5527-0.4921-0.5519-0.771l0.0072-0.4621
							c-0.0008,0.2788,0.1833,0.5581,0.5519,0.7709c0.7325,0.4229,1.9155,0.423,2.6433,0
							C24.38605,7.08161,24.56705,6.80671,24.56785,6.53151z"></path><path fill="#56707B" d="M24.01585,5.76061c0.7326,0.4229,0.7364,1.1082,0.0086,1.5311c-0.7278,0.423-1.9108,0.4229-2.6433,0
							c-0.7325-0.4229-0.7364-1.1081-0.0086-1.5311C22.10025,5.33771,23.28335,5.33771,24.01585,5.76061z"></path></g><g><path fill="#B0B8BC" d="M23.71145,3.30551l-0.0039,2.7769c-0.0004,0.1494-0.0987,0.2986-0.2949,0.4127
							c-0.395,0.2295-1.0371,0.2295-1.4347-0.0001c-0.2001-0.1155-0.3-0.267-0.2996-0.4184l0.0039-2.7769
							c-0.0004,0.1514,0.0995,0.3029,0.2996,0.4184c0.3976,0.2296,1.0397,0.2296,1.4347,0
							C23.61275,3.60411,23.71105,3.45491,23.71145,3.30551z"></path><path fill="#DDE4E7" d="M24.31505,2.71661c0.8984,0.5187,0.9031,1.3591,0.0105,1.8778c-0.8926,0.5188-2.3435,0.5187-3.2419,0
							c-0.8984-0.5187-0.9032-1.3591-0.0106-1.8778C21.96565,2.19791,23.41665,2.19791,24.31505,2.71661z"></path></g><g><path fill="#CB4844" d="M26.09155,2.97331l-0.0131,0.8381c-0.0014,0.4992-0.3296,0.9977-0.9853,1.3788
							c-1.3199,0.767-3.4654,0.767-4.7939,0c-0.6685-0.386-1.0024-0.8924-1.001-1.3981l0.0131-0.8381
							c-0.0014,0.5056,0.3325,1.0121,1.001,1.3981c1.3285,0.767,3.4739,0.767,4.7938,0
							C25.76185,3.97101,26.09015,3.47251,26.09155,2.97331z"></path><path fill="#EE5550" d="M25.09065,1.57521c1.3284,0.767,1.3354,2.0098,0.0155,2.7769c-1.3199,0.767-3.4653,0.767-4.7938,0
							c-1.3285-0.767-1.3356-2.0098-0.0157-2.7768C21.61655,0.80831,23.76205,0.80821,25.09065,1.57521z"></path></g></g><g><g><path fill="#485F69" d="M30.90575,12.52591l-0.3304,0.2468c-0.1949,0.1495-0.4878,0.1714-0.8333,0.0305
							c-0.6955-0.2837-1.3402-1.1196-1.4407-1.8677c-0.0505-0.3764,0.0465-0.6587,0.2439-0.8101l0.3304-0.2468
							c-0.1974,0.1514-0.2944,0.4337-0.2438,0.8101c0.1004,0.7481,0.7452,1.584,1.4406,1.8677
							C30.41805,12.69731,30.71085,12.67541,30.90575,12.52591z"></path><path fill="#56707B" d="M31.14965,11.71581c0.1004,0.7481-0.3817,1.1243-1.0772,0.8406
							c-0.6954-0.2837-1.3402-1.1196-1.4406-1.8677c-0.1004-0.7481,0.3816-1.1243,1.0771-0.8406
							S31.04925,10.96771,31.14965,11.71581z"></path></g><g><path fill="#6B993F" d="M32.15355,11.28051l-1.3017,0.9971c-0.1688,0.1294-0.4224,0.1484-0.7216,0.0263
							c-0.6022-0.2456-1.1606-0.9695-1.2475-1.6173c-0.0438-0.326,0.0402-0.5704,0.2112-0.7015l1.3017-0.9971
							c-0.171,0.1311-0.255,0.3756-0.2112,0.7016c0.0869,0.6478,0.6453,1.3716,1.2475,1.6173
							C31.73115,11.42891,31.98475,11.40991,32.15355,11.28051z"></path><path fill="#7EB442" d="M32.36475,10.57901c0.087,0.6478-0.3305,0.9735-0.9328,0.7279
							c-0.6022-0.2457-1.1606-0.9695-1.2475-1.6173c-0.087-0.6478,0.3304-0.9736,0.9327-0.728
							C31.71945,9.20731,32.27775,9.93121,32.36475,10.57901z"></path></g></g><g><path fill="#FFF" d="M22.36215,11.98261c7.7475,4.473,14.0321,15.3513,14.0068,24.2606
				c-0.0252,8.9025-6.3509,12.5075-14.0983,8.0345c-7.7536-4.4766-14.0382-15.362-14.0129-24.2645
				C8.28295,11.10381,14.60855,7.50611,22.36215,11.98261z M11.90385,15.43581l0.3427-0.4744l-1.2634-1.5914l-0.3488,0.4645
				L11.90385,15.43581 M33.64995,42.7779l0.3427-0.4744l-1.2695-1.5948l-0.3427,0.4675L33.64995,42.7779 M15.76645,37.7555
				l0.7588-1.0258l-0.5832-0.7289l-0.7527,1.0293L15.76645,37.7555 M28.68495,20.13681l0.7588-1.0185l-0.5831-0.7361l-0.7528,1.0293
				L28.68495,20.13681 M16.58095,12.76361l0.6035-0.0088l-0.6712-1.9008l-0.6035,0.0088L16.58095,12.76361 M10.55565,28.69501
				l1.3168-0.0173l-0.3084-0.8716l-1.3168,0.0241L10.55565,28.69501 M34.07135,27.44261l-1.3106,0.0208l0.3084,0.8717l1.3107-0.0209
				L34.07135,27.44261 M28.11985,45.28711l0.5975-0.0123l-0.6713-1.8936l-0.6035,0.0088L28.11985,45.28711 M8.92845,19.9523
				l-0.0022,0.7763l1.4789,0.8539l0.0022-0.7763L8.92845,19.9523 M34.21975,35.33181l1.4789,0.8539l0.0022-0.7763l-1.4789-0.8539
				L34.21975,35.33181 M22.60765,43.64571l0.0049-1.6994l-0.6756-0.39l-0.0048,1.6994L22.60765,43.64571 M22.01935,12.49191
				l-0.0048,1.6994l0.6755,0.39l0.0049-1.6993L22.01935,12.49191"></path></g><g><path fill="#4BB5E7" d="M22.36925,9.47891c-8.9647-5.1758-16.2551-1.0212-16.2843,9.2798
				c-0.0292,10.3014,7.2139,22.8397,16.1786,28.0155c8.9586,5.1722,16.2489,1.0248,16.2781-9.2766
				C38.57085,27.1967,31.32785,14.65121,22.36925,9.47891z M22.27056,44.27771c-7.7535-4.4765-14.0381-15.362-14.0129-24.2645
				c0.0253-8.9093,6.3509-12.5071,14.1045-8.0306c7.7475,4.473,14.0321,15.3513,14.0068,24.2606
				C36.34375,45.14571,30.01805,48.75071,22.27056,44.27771"></path></g><g><path fill="#61C4F0" d="M43.91505,34.37601c-0.00949,5.1189-1.8206,8.7126-4.728,10.4091l-5.3762,3.1171
				c2.9074-1.6873,4.7185-5.2902,4.728-10.4092c0.0286-10.2946-7.2064-22.8392-16.1667-28.0154
				c-4.5182-2.6023-8.5981-2.8406-11.553-1.1343l5.3761-3.117c2.955-1.7156,7.0348-1.4773,11.5531,1.125
				C36.69915,11.52701,43.94365,24.07161,43.91505,34.37601z"></path></g><g><polygon fill="#485F69" points="11.564 27.806 11.872 28.678 10.556 28.695 10.247 27.83"></polygon><polygon fill="#485F69" points="10.983 13.37 12.247 14.961 11.904 15.436 10.634 13.835"></polygon><polygon fill="#485F69" points="22.613 41.946 22.608 43.646 21.932 43.256 21.937 41.556"></polygon><polygon fill="#485F69" points="15.942 36.001 16.525 36.73 15.766 37.755 15.189 37.03"></polygon><polygon fill="#485F69" points="10.407 20.806 10.405 21.583 8.926 20.729 8.928 19.952"></polygon><polygon fill="#485F69" points="28.046 43.381 28.717 45.275 28.12 45.287 27.443 43.39"></polygon><polygon fill="#485F69" points="32.723 40.709 33.993 42.303 33.65 42.778 32.38 41.176"></polygon><polygon fill="#485F69" points="16.513 10.854 17.184 12.755 16.581 12.764 15.91 10.863"></polygon><polygon fill="#485F69" points="35.701 35.409 35.699 36.186 34.22 35.332 34.222 34.556"></polygon><polygon fill="#485F69" points="22.695 12.882 22.69 14.581 22.015 14.191 22.019 12.492"></polygon><polygon fill="#485F69" points="34.071 27.443 34.38 28.314 33.069 28.335 32.761 27.463"></polygon><polygon fill="#485F69" points="28.861 18.382 29.444 19.118 28.685 20.137 28.108 19.412"></polygon></g><g><g><path fill="#485F69" d="M24.56785,6.53151l-0.0072,0.4621c-0.0008,0.2753-0.1818,0.5501-0.5434,0.7603
							c-0.7278,0.4229-1.9107,0.4229-2.6433,0c-0.3686-0.2129-0.5527-0.4921-0.5519-0.771l0.0072-0.4621
							c-0.0008,0.2788,0.1833,0.5581,0.5519,0.7709c0.7325,0.4229,1.9155,0.423,2.6433,0
							C24.38605,7.08161,24.56705,6.80671,24.56785,6.53151z"></path><path fill="#56707B" d="M24.01585,5.76061c0.7326,0.4229,0.7364,1.1082,0.0086,1.5311c-0.7278,0.423-1.9108,0.4229-2.6433,0
							c-0.7325-0.4229-0.7364-1.1081-0.0086-1.5311C22.10025,5.33771,23.28335,5.33771,24.01585,5.76061z"></path></g><g><path fill="#B0B8BC" d="M23.71145,3.30551l-0.0039,2.7769c-0.0004,0.1494-0.0987,0.2986-0.2949,0.4127
							c-0.395,0.2295-1.0371,0.2295-1.4347-0.0001c-0.2001-0.1155-0.3-0.267-0.2996-0.4184l0.0039-2.7769
							c-0.0004,0.1514,0.0995,0.3029,0.2996,0.4184c0.3976,0.2296,1.0397,0.2296,1.4347,0
							C23.61275,3.60411,23.71105,3.45491,23.71145,3.30551z"></path><path fill="#DDE4E7" d="M24.31505,2.71661c0.8984,0.5187,0.9031,1.3591,0.0105,1.8778c-0.8926,0.5188-2.3435,0.5187-3.2419,0
							c-0.8984-0.5187-0.9032-1.3591-0.0106-1.8778C21.96565,2.19791,23.41665,2.19791,24.31505,2.71661z"></path></g><g><path fill="#CB4844" d="M26.09155,2.97331l-0.0131,0.8381c-0.0014,0.4992-0.3296,0.9977-0.9853,1.3788
							c-1.3199,0.767-3.4654,0.767-4.7939,0c-0.6685-0.386-1.0024-0.8924-1.001-1.3981l0.0131-0.8381
							c-0.0014,0.5056,0.3325,1.0121,1.001,1.3981c1.3285,0.767,3.4739,0.767,4.7938,0
							C25.76185,3.97101,26.09015,3.47251,26.09155,2.97331z"></path><path fill="#EE5550" d="M25.09065,1.57521c1.3284,0.767,1.3354,2.0098,0.0155,2.7769c-1.3199,0.767-3.4653,0.767-4.7938,0
							c-1.3285-0.767-1.3356-2.0098-0.0157-2.7768C21.61655,0.80831,23.76205,0.80821,25.09065,1.57521z"></path></g></g><g><g><path fill="#485F69" d="M30.90575,12.52591l-0.3304,0.2468c-0.1949,0.1495-0.4878,0.1714-0.8333,0.0305
							c-0.6955-0.2837-1.3402-1.1196-1.4407-1.8677c-0.0505-0.3764,0.0465-0.6587,0.2439-0.8101l0.3304-0.2468
							c-0.1974,0.1514-0.2944,0.4337-0.2438,0.8101c0.1004,0.7481,0.7452,1.584,1.4406,1.8677
							C30.41805,12.69731,30.71085,12.67541,30.90575,12.52591z"></path><path fill="#56707B" d="M31.14965,11.71581c0.1004,0.7481-0.3817,1.1243-1.0772,0.8406
							c-0.6954-0.2837-1.3402-1.1196-1.4406-1.8677c-0.1004-0.7481,0.3816-1.1243,1.0771-0.8406
							S31.04925,10.96771,31.14965,11.71581z"></path></g><g><path fill="#6B993F" d="M32.15355,11.28051l-1.3017,0.9971c-0.1688,0.1294-0.4224,0.1484-0.7216,0.0263
							c-0.6022-0.2456-1.1606-0.9695-1.2475-1.6173c-0.0438-0.326,0.0402-0.5704,0.2112-0.7015l1.3017-0.9971
							c-0.171,0.1311-0.255,0.3756-0.2112,0.7016c0.0869,0.6478,0.6453,1.3716,1.2475,1.6173
							C31.73115,11.42891,31.98475,11.40991,32.15355,11.28051z"></path><path fill="#7EB442" d="M32.36475,10.57901c0.087,0.6478-0.3305,0.9735-0.9328,0.7279
							c-0.6022-0.2457-1.1606-0.9695-1.2475-1.6173c-0.087-0.6478,0.3304-0.9736,0.9327-0.728
							C31.71945,9.20731,32.27775,9.93121,32.36475,10.57901z"></path></g></g><g><path fill="#B0B8BC" d="M22.02025,28.35241c0.2735,0.1579,0.4883,0.5298,0.4874,0.8444
				c-0.0009,0.3141-0.2171,0.4465-0.4906,0.2886c-0.2735-0.1579-0.4965-0.5438-0.4956-0.858
				C21.52235,28.31281,21.74675,28.19451,22.02025,28.35241z"></path><path fill="#40545D" d="M22.61095,27.9017c0.4302,0.487,0.7271,1.183,0.7254,1.7736c-0.0017,0.59-0.2849,0.9321-0.7083,0.9453
				c-0.0012,0.4474-0.0026,0.9238-0.004,1.4286l-1.2265-0.7082c0.0014-0.5047,0.0028-0.9811,0.004-1.4285
				c-0.4219-0.4915-0.7105-1.1735-0.7088-1.7635c0.0017-0.6004,0.3014-0.9422,0.7414-0.9268
				c0.0312-2.2423,0.1016-3.6516,0.2071-5.7367l0.4299-4.7454l0.3657,5.2047C22.53025,24.1447,22.58415,25.6258,22.61095,27.9017z
				 M22.62945,30.13501c0.2161-0.0853,0.3496-0.3131,0.3506-0.6655c0.001-0.3523-0.139-0.7483-0.3622-1.0774
				c-0.1653-0.2481-0.3723-0.4535-0.5961-0.5827c-0.2237-0.1292-0.4311-0.163-0.5973-0.1063
				c-0.2243,0.0708-0.3661,0.304-0.3671,0.6564c-0.001,0.3524,0.1307,0.7332,0.3456,1.0674
				c0.1653,0.2481,0.3888,0.4723,0.6126,0.6015C22.23925,30.15761,22.46335,30.19171,22.62945,30.13501"></path></g></svg>