<svg xmlns="http://www.w3.org/2000/svg" enable-background="new 0 0 140 140" viewBox="0 0 140 140" id="hourglass"><path fill="#ededed" d="M82.9377518,63.3458862c9.3318024-6.0825386,14.959053-16.4679184,14.959053-27.6072731V29.909874
				H42.1033134v5.8293571c0,11.1387367,5.6270905,21.5241165,14.95858,27.6066551h0.0004654
				c4.8070374,3.1335068,4.8073463,10.1742935,0.000309,13.3078003l-0.0015488,0.001236
				c-9.3310242,6.0825348-14.9578056,16.4679184-14.9578056,27.6066513v5.828125h55.7934914v-5.828125
				c0-11.1387329-5.6267853-21.5241165-14.9578094-27.6066513l-0.0015488-0.001236
				C78.1305618,73.5201797,78.1307144,66.479393,82.9377518,63.3458862z"></path><rect width="67.655" height="9.91" x="36.172" y="20" fill="#344d5b"></rect><rect width="67.655" height="9.91" x="36.172" y="110.09" fill="#344d5b"></rect><path fill="#feda6f" d="M80.1704788,80.9039078l-4.3488007-2.8351364c-2.7271194-1.7778397-4.3715591-4.812912-4.3715591-8.068367
				v-0.000618c0-3.255455,1.6447525-6.291153,4.3724823-8.0689926l4.345871-2.8326569
				c5.6046524-3.6534843,9.6013794-9.0947151,11.4677429-15.3109627h-43.272316
				c1.8663597,6.2162476,5.8629379,11.6574783,11.4671249,15.3109627l4.3463287,2.8326569
				c2.7277374,1.7778397,4.3726349,4.8135376,4.3726349,8.0696106c0,3.255455-1.6444397,6.2905273-4.3715515,8.068367
				l-4.3488045,2.8351364c-7.8945808,5.1471939-12.6551895,13.9336319-12.6551895,23.357666v0.7570724h45.651226v-0.7570724
				C92.8256683,94.8375397,88.0650635,86.0511017,80.1704788,80.9039078z"></path></svg>